<svg width="382" height="633" viewBox="0 0 382 633" fill="none" xmlns="http://www.w3.org/2000/svg">
<path d="M381.492 56.071C381.492 25.102 356.992 0 326.764 0C304.471 0 285.3 13.668 276.77 33.263C250.235 18.8224 220.505 11.2615 190.295 11.271C88.01 11.271 4.79504 96.538 4.79504 201.34C4.79504 306.142 88.01 391.405 190.295 391.405C292.58 391.405 375.795 306.142 375.795 201.34C375.842 168.074 367.263 135.363 350.895 106.402C360.151 101.664 367.912 94.4505 373.314 85.5649C378.715 76.6793 381.546 66.4695 381.492 56.071ZM190.292 295.487C139.628 295.487 98.41 253.254 98.41 201.343C98.41 149.432 139.628 107.196 190.292 107.196C240.956 107.196 282.178 149.429 282.178 201.343C282.178 253.257 240.959 295.487 190.295 295.487H190.292Z" fill="#591E72"/>
<path d="M356.325 473.387C351.369 469.696 345.721 467.04 339.717 465.576C333.713 464.113 327.476 463.872 321.377 464.868C315.278 465.864 309.442 468.077 304.216 471.375C298.99 474.673 294.48 478.988 290.956 484.064C267.712 516.922 230.234 536.536 190.706 536.536C148.206 536.536 109.166 514.574 86.2801 477.785C72.3871 455.448 43.4491 448.879 21.6541 463.119C-0.140924 477.359 -6.55191 507.007 7.34109 529.344C47.5061 593.91 116.055 632.461 190.706 632.461C260.138 632.461 325.953 598.033 366.748 540.361C381.92 518.919 377.251 488.933 356.325 473.387Z" fill="#591E72"/>
</svg>
